<svg xmlns="http://www.w3.org/2000/svg" viewBox="0 0 512 512" width="512" height="512" role="img" aria-label="ねこ工場">
  <defs>
    <linearGradient id="bg" x1="0" y1="0" x2="0" y2="1">
      <stop offset="0%" stop-color="#ffe6bf"/>
      <stop offset="100%" stop-color="#ffc98e"/>
    </linearGradient>
  </defs>
  <rect width="512" height="512" rx="112" fill="url(#bg)"/>
  <!-- 工場の煙突と屋根 -->
  <g stroke="#8e5a63" stroke-width="13" stroke-linejoin="round" fill="#fff6ea">
    <path d="M62 452 V386 l50 -32 v32 l50 -32 v32 l50 -32 v32 l50 -32 v32 l50 -32 v32 l50 -32 v100 z"/>
    <rect x="392" y="300" width="46" height="152" rx="10"/>
  </g>
  <!-- ねこ -->
  <g transform="translate(250 356) scale(4.5)">
    <path d="M-15,-42 L-18.5,-56 L-4,-47 Z" fill="#f0a860" stroke="#8e5a63" stroke-width="2.4" stroke-linejoin="round"/>
    <path d="M15,-42 L18.5,-56 L4,-47 Z" fill="#f0a860" stroke="#8e5a63" stroke-width="2.4" stroke-linejoin="round"/>
    <path d="M-13.6,-44.4 L-15.6,-52 L-7.4,-47 Z" fill="#ffb3c4"/>
    <path d="M13.6,-44.4 L15.6,-52 L7.4,-47 Z" fill="#ffb3c4"/>
    <ellipse cx="0" cy="-38" rx="16.5" ry="15" fill="#f0a860" stroke="#8e5a63" stroke-width="2.4"/>
    <path d="M-6,-49.5 l-.6,4.4 M0,-51 l0,4.6 M6,-49.5 l.6,4.4" fill="none" stroke="#c87a33" stroke-width="2.4" stroke-linecap="round"/>
    <ellipse cx="0" cy="-32.5" rx="8.8" ry="6.2" fill="#ffeed6" opacity=".85"/>
    <ellipse cx="-11.4" cy="-34.4" rx="3.5" ry="2.3" fill="#ffa8bd" opacity=".75"/>
    <ellipse cx="11.4" cy="-34.4" rx="3.5" ry="2.3" fill="#ffa8bd" opacity=".75"/>
    <ellipse cx="-6.2" cy="-39.5" rx="2.7" ry="3.3" fill="#3b3140"/>
    <ellipse cx="6.2" cy="-39.5" rx="2.7" ry="3.3" fill="#3b3140"/>
    <circle cx="-5.3" cy="-40.7" r="1" fill="#fff"/>
    <circle cx="7.1" cy="-40.7" r="1" fill="#fff"/>
    <path d="M-2.2,-34.4 L2.2,-34.4 L0,-31.9 Z" fill="#ff9aae" stroke="#8e5a63" stroke-width="1" stroke-linejoin="round"/>
    <path d="M0,-31.6 q-3,3.2 -5.6,.4 M0,-31.6 q3,3.2 5.6,.4" fill="none" stroke="#8e5a63" stroke-width="1.6" stroke-linecap="round"/>
  </g>
</svg>
